<?xml version="1.0" encoding="UTF-8"?>
<svg id="Layer_1" data-name="Layer 1" xmlns="http://www.w3.org/2000/svg" version="1.1" viewBox="0 0 71 101">
  <defs>
    <style>
      .cls-1 {
        fill: #fff;
        stroke-width: 0px;
      }
    </style>
  </defs>
  <path class="cls-1" d="M50.6,53.4l13.6-13.6c1.3-1.4,1.3-3.5,0-4.8-1.4-1.4-3.5-1.4-4.8,0l-20.1,20.1v-7.1c0,0,0-.2,0-.2v-10.4c0-1.8-1.5-3.4-3.4-3.4s-3.4,1.6-3.4,3.4v10.3c0,.1,0,.2,0,.4v4.1H14.6l22.8-31.1h0c0-.2.1-.3.2-.4,0,0,0-.1.1-.2,0-.2,0-.2.1-.4,0-.1.1-.2.1-.4s0-.1,0-.2v-.7c0-.1,0-.2,0-.4,0-.1,0-.2-.1-.3,0,0,0-.2,0-.4,0,0-.1-.2-.1-.2,0,0-.1-.2-.2-.3,0-.1-.1-.2-.2-.2,0,0-.1-.2-.2-.2,0,0-.1-.2-.2-.2,0,0,0-.1-.2-.2h0c-.1,0-.2-.1-.3-.2,0,0-.1-.2-.3-.2,0,0-.2,0-.2-.1-.1,0-.2,0-.4,0s-.2,0-.2,0H7.8c-1.9,0-3.4,1.5-3.4,3.4s1.5,3.5,3.4,3.5h20L5.1,53.6h0c0,.1-.1.2-.2.3,0,0,0,.2-.2.2,0,.1,0,.2,0,.3,0,.1,0,.2-.1.3v.3c0,.1,0,.2,0,.4h0v.2c0,.1,0,.2,0,.4s0,.2,0,.2c0,.1,0,.2.1.4,0,.1.1.2.2.3,0,0,0,.1.1.3,0,0,.1.2.2.2,0,0,.1.1.2.2,0,.1.2.2.2.3,0,0,.1.1.2.1h0c0,.1.1.1.2.2.1,0,.2.1.3.1,0,.1.1.1.2.2.2,0,.3,0,.4,0,0,0,.1,0,.2,0,.2,0,.4,0,.6,0h24.6v13.6c0,4.6-3.8,8.5-8.6,8.5s-7-2.5-8.1-5.9c-.6-1.8-2.5-2.8-4.3-2.2-1.7.5-2.8,2.4-2.2,4.3,2,6.2,7.8,10.7,14.6,10.7s14.6-6.1,15.4-13.9c0-.2,0-.3,0-.5v-.5c0-.2,0-.3,0-.5v-7.9l6.4-6.5,13.4,17.5c.7.8,1.6,1.2,2.5,1.2s1.5-.2,2.2-.8c1.5-1.2,1.7-3.3.5-4.8l-13.8-18Z"/>
</svg>